/* XPM */
static char * checkers_xpm[] = {
"100 100 2 1",
" 	c #FFFFFF",
".	c #C6C6C6",
"                                                  ..................................................",
"                                                  ..................................................",
"                                                  ..................................................",
"                                                  ..................................................",
"                                                  ..................................................",
"                                                  ..................................................",
"                                                  ..................................................",
"                                                  ..................................................",
"                                                  ..................................................",
"                                                  ..................................................",
"                                                  ..................................................",
"                                                  ..................................................",
"                                                  ..................................................",
"                                                  ..................................................",
"                                                  ..................................................",
"                                                  ..................................................",
"                                                  ..................................................",
"                                                  ..................................................",
"                                                  ..................................................",
"                                                  ..................................................",
"                                                  ..................................................",
"                                                  ..................................................",
"                                                  ..................................................",
"                                                  ..................................................",
"                                                  ..................................................",
"                                                  ..................................................",
"                                                  ..................................................",
"                                                  ..................................................",
"                                                  ..................................................",
"                                                  ..................................................",
"                                                  ..................................................",
"                                                  ..................................................",
"                                                  ..................................................",
"                                                  ..................................................",
"                                                  ..................................................",
"                                                  ..................................................",
"                                                  ..................................................",
"                                                  ..................................................",
"                                                  ..................................................",
"                                                  ..................................................",
"                                                  ..................................................",
"                                                  ..................................................",
"                                                  ..................................................",
"                                                  ..................................................",
"                                                  ..................................................",
"                                                  ..................................................",
"                                                  ..................................................",
"                                                  ..................................................",
"                                                  ..................................................",
"                                                  ..................................................",
"..................................................                                                  ",
"..................................................                                                  ",
"..................................................                                                  ",
"..................................................                                                  ",
"..................................................                                                  ",
"..................................................                                                  ",
"..................................................                                                  ",
"..................................................                                                  ",
"..................................................                                                  ",
"..................................................                                                  ",
"..................................................                                                  ",
"..................................................                                                  ",
"..................................................                                                  ",
"..................................................                                                  ",
"..................................................                                                  ",
"..................................................                                                  ",
"..................................................                                                  ",
"..................................................                                                  ",
"..................................................                                                  ",
"..................................................                                                  ",
"..................................................                                                  ",
"..................................................                                                  ",
"..................................................                                                  ",
"..................................................                                                  ",
"..................................................                                                  ",
"..................................................                                                  ",
"..................................................                                                  ",
"..................................................                                                  ",
"..................................................                                                  ",
"..................................................                                                  ",
"..................................................                                                  ",
"..................................................                                                  ",
"..................................................                                                  ",
"..................................................                                                  ",
"..................................................                                                  ",
"..................................................                                                  ",
"..................................................                                                  ",
"..................................................                                                  ",
"..................................................                                                  ",
"..................................................                                                  ",
"..................................................                                                  ",
"..................................................                                                  ",
"..................................................                                                  ",
"..................................................                                                  ",
"..................................................                                                  ",
"..................................................                                                  ",
"..................................................                                                  ",
"..................................................                                                  ",
"..................................................                                                  ",
"..................................................                                                  "};
