/* XPM */
static char * D:\hv\non_dist\grid_xpm[] = {
"34 34 3 1",
" 	c None",
".	c #E9E9E9",
"+	c #FFFFFF",
"..................................",
"..................................",
"..++++++++++++++++++++++++++++++++",
"..++++++++++++++++++++++++++++++++",
"..++++++++++++++++++++++++++++++++",
"..++++++++++++++++++++++++++++++++",
"..++++++++++++++++++++++++++++++++",
"..++++++++++++++++++++++++++++++++",
"..++++++++++++++++++++++++++++++++",
"..++++++++++++++++++++++++++++++++",
"..++++++++++++++++++++++++++++++++",
"..++++++++++++++++++++++++++++++++",
"..++++++++++++++++++++++++++++++++",
"..++++++++++++++++++++++++++++++++",
"..++++++++++++++++++++++++++++++++",
"..++++++++++++++++++++++++++++++++",
"..++++++++++++++++++++++++++++++++",
"..++++++++++++++++++++++++++++++++",
"..++++++++++++++++++++++++++++++++",
"..++++++++++++++++++++++++++++++++",
"..++++++++++++++++++++++++++++++++",
"..++++++++++++++++++++++++++++++++",
"..++++++++++++++++++++++++++++++++",
"..++++++++++++++++++++++++++++++++",
"..++++++++++++++++++++++++++++++++",
"..++++++++++++++++++++++++++++++++",
"..++++++++++++++++++++++++++++++++",
"..++++++++++++++++++++++++++++++++",
"..++++++++++++++++++++++++++++++++",
"..++++++++++++++++++++++++++++++++",
"..++++++++++++++++++++++++++++++++",
"..++++++++++++++++++++++++++++++++",
"..++++++++++++++++++++++++++++++++",
"..++++++++++++++++++++++++++++++++"};
